:SAMPLES-PER-SECOND 30
:FULLY-SPECIFIED
:DEGREES
835
root  26.6647 39.0018 -3.02099 -51.9734 -78.1496 55.444
RightUpLeg  -31.7201 -11.0884 -10.5348
RightLeg  -1.63903 -7.5182 2.92053
RightFoot  1.25929 -0.461625 4.25829
RightToes  -4.65663e-010 0 -3.6325e-017
Spine  -3.46591 -1.51218 -18.7384
Spine1  8.83632 -3.39641 10.768
HEad  -8.68883 -2.45872 -0.0769501
LeftShoulder1  7.79469 -11.1584 -46.3625
LeftArm  -14.7281 13.28 -19.0515
LeftForeArm  27.0007 -33.3773 -5.84893
LeftHand  -0.244104 0.0205437 5.32207
RightShoulder  5.94987 8.98434 41.4185
RightArm  -4.05912 -19.7373 33.5169
RightForeArm  9.75127 14.9831 5.78825
RightHand  -0.774457 1.27763 -13.5965
LeftUpLeg  6.32908 9.58276 -4.62944
LeftLeg  10.4213 14.0277 -4.70024
LeftFoot  -14.1931 -0.0413049 -5.06104
LeftToes  -7.27628e-011 -1.6005e-012 -1.37987e-011
836
root  25.3993 38.7602 -2.9361 -51.076 -77.4736 54.4251
RightUpLeg  -31.7823 -11.7506 -11.2803
RightLeg  -2.18648 -7.48797 2.89289
RightFoot  0.285152 -0.437392 4.30011
RightToes  -4.65663e-010 0 -3.6325e-017
Spine  -3.66878 -1.42382 -18.3931
Spine1  8.74336 -3.16251 10.3443
HEad  -9.13143 -3.17679 -0.271993
LeftShoulder1  7.93477 -11.3005 -46.7534
LeftArm  -13.5449 12.7674 -19.2731
LeftForeArm  27.6473 -33.3117 -5.79556
LeftHand  -0.244104 0.0205437 5.32207
RightShoulder  5.97326 9.0254 41.4473
RightArm  -4.92857 -19.6162 33.1297
RightForeArm  11.917 13.4629 5.98561
RightHand  -0.782108 1.34624 -13.5931
LeftUpLeg  8.4918 9.4062 -4.35743
LeftLeg  10.737 13.0953 -4.79227
LeftFoot  -15.2142 -0.125845 -6.37232
LeftToes  -7.27628e-011 -1.6005e-012 -1.37987e-011
837
root  24.0207 38.4878 -2.92402 -48.4383 -76.5727 51.6787
RightUpLeg  -31.8991 -12.2893 -11.9317
RightLeg  0.690774 -7.68259 2.15238
RightFoot  -0.865642 -0.319115 3.39824
RightToes  -4.65663e-010 0 -3.6325e-017
Spine  -4.33735 -1.56757 -18.3452
Spine1  9.19623 -3.27695 10.4135
HEad  -9.61191 -3.85534 -0.481231
LeftShoulder1  8.09319 -11.4666 -47.1684
LeftArm  -12.6445 12.5045 -19.6388
LeftForeArm  27.9912 -32.5275 -5.58212
LeftHand  -0.244104 0.0205437 5.32207
RightShoulder  5.94464 9.01596 41.2663
RightArm  -6.10252 -19.3744 32.9154
RightForeArm  13.3923 11.9033 6.1103
RightHand  -0.78625 1.30969 -13.7356
LeftUpLeg  10.717 9.90296 -3.57487
LeftLeg  11.2211 10.8792 -4.74042
LeftFoot  -16.0981 -0.246075 -8.24922
LeftToes  -7.27628e-011 -1.6005e-012 -1.37987e-011
838
root  22.5449 38.2724 -2.9685 -42.7361 -75.5976 46.1943
RightUpLeg  -31.8425 -12.7368 -12.1133
RightLeg  4.31241 -8.71716 1.28153
RightFoot  0.607967 -0.145946 1.50125
RightToes  -4.65663e-010 0 -3.6325e-017
Spine  -5.58899 -2.00959 -18.0847
Spine1  9.73354 -3.79159 10.9721
HEad  -9.58498 -4.62224 -0.676531
LeftShoulder1  8.20902 -11.5757 -47.5042
LeftArm  -11.5399 12.692 -20.0687
LeftForeArm  27.6249 -30.9593 -5.22528
LeftHand  -0.244104 0.0205437 5.32207
RightShoulder  5.86288 8.91256 41.0196
RightArm  -6.96413 -19.5874 32.7186
RightForeArm  14.1035 10.8067 6.13238
RightHand  -0.762611 1.1611 -13.6186
LeftUpLeg  12.5966 11.3645 -1.81714
LeftLeg  11.7507 7.29182 -4.38936
LeftFoot  -15.9844 -0.299127 -9.72429
LeftToes  -7.27628e-011 -1.6005e-012 -1.37987e-011
839
root  21.0237 38.1636 -3.01261 -36.2802 -75.3964 40.0354
RightUpLeg  -32.2076 -13.3983 -10.9832
RightLeg  7.86086 -8.97888 0.662708
RightFoot  5.87734 0.145233 -0.671382
RightToes  -4.65663e-010 0 -3.6325e-017
Spine  -6.75162 -2.17017 -16.107
Spine1  9.63799 -3.90246 10.8191
HEad  -9.10367 -5.45117 -0.851094
LeftShoulder1  8.27247 -11.5896 -47.8321
LeftArm  -10.1294 13.3214 -20.4375
LeftForeArm  26.803 -28.7988 -4.76928
LeftHand  -0.244104 0.0205437 5.32207
RightShoulder  5.82264 8.80517 41.0992
RightArm  -7.37509 -20.2538 32.1265
RightForeArm  14.4371 10.1722 6.11526
RightHand  -0.735247 1.05512 -13.3459
LeftUpLeg  14.2611 13.7249 1.02356
LeftLeg  12.4117 3.41719 -3.56284
LeftFoot  -14.9288 -0.268905 -11.4137
LeftToes  -7.27628e-011 -1.6005e-012 -1.37987e-011
840
root  19.5217 38.0782 -3.03059 -32.7585 -76.6672 36.5379
RightUpLeg  -33.711 -14.6569 -8.1037
RightLeg  12.3935 -6.20094 0.118397
RightFoot  11.3655 0.561886 -2.42023
RightToes  -4.65663e-010 0 -3.6325e-017
Spine  -7.29307 -1.60125 -12.2945
Spine1  9.04857 -3.06308 9.29335
HEad  -9.02065 -5.83454 -1.0267
LeftShoulder1  8.30805 -11.5465 -48.1789
LeftArm  -9.46329 14.5428 -20.8956
LeftForeArm  26.1708 -26.6585 -4.32611
LeftHand  -0.244104 0.0205437 5.32207
RightShoulder  5.91354 8.89544 41.4629
RightArm  -7.61883 -20.3218 31.2012
RightForeArm  14.9578 9.28425 6.09224
RightHand  -0.724341 1.03423 -13.1919
LeftUpLeg  15.82 16.9845 4.27815
LeftLeg  13.972 -0.0162986 -2.25758
LeftFoot  -13.5767 -0.210255 -15.0365
LeftToes  -7.27628e-011 -1.6005e-012 -1.37987e-011
841
root  18.1285 37.99 -3.06591 -32.8358 -78.8467 36.6091
RightUpLeg  -35.5939 -15.5758 -4.63256
RightLeg  17.4434 -2.15207 -0.514083
RightFoot  12.8904 0.943127 -3.99831
RightToes  -4.65663e-010 0 -3.6325e-017
Spine  -7.33764 -0.85862 -8.76526
Spine1  8.61282 -2.09849 7.88571
HEad  -9.90671 -5.15964 -1.25291
LeftShoulder1  8.32562 -11.4982 -48.438
LeftArm  -10.4293 16.6303 -21.7176
LeftForeArm  25.7612 -25.0714 -4.00445
LeftHand  -0.244104 0.0205437 5.32207
RightShoulder  6.07172 9.20208 41.5536
RightArm  -7.64158 -18.8318 30.5043
RightForeArm  15.6501 7.96393 6.07168
RightHand  -0.724919 0.996982 -13.2762
LeftUpLeg  15.9655 19.8308 6.66442
LeftLeg  17.8215 -1.61459 -0.526127
LeftFoot  -10.9724 0.139052 -19.209
LeftToes  -7.27628e-011 -1.6005e-012 -1.37987e-011
842
root  16.8872 38.0132 -3.16612 -31.1463 -80.367 35.2351
RightUpLeg  -36.1782 -14.3966 -3.01418
RightLeg  21.2603 -1.77231 -1.04503
RightFoot  10.7035 1.14521 -5.49884
RightToes  -4.65663e-010 0 -3.6325e-017
Spine  -7.08407 -0.833808 -7.16543
Spine1  8.34616 -2.22772 8.4409
HEad  -11.3413 -3.65703 -1.48866
LeftShoulder1  8.31198 -11.4673 -48.4582
LeftArm  -11.986 19.1416 -22.9813
LeftForeArm  25.0815 -23.7629 -3.77353
LeftHand  -0.244104 0.0205437 5.32207
RightShoulder  6.12149 9.43723 41.0986
RightArm  -7.33007 -16.3515 30.3399
RightForeArm  15.5444 7.65384 6.16158
RightHand  -0.732751 0.90521 -13.6052
LeftUpLeg  12.6457 17.7293 6.92424
LeftLeg  24.8737 2.27687 1.58911
LeftFoot  -5.0379 1.07074 -19.324
LeftToes  -7.27628e-011 -1.6005e-012 -1.37987e-011
843
root  15.8362 38.1643 -3.29527 -21.1509 -80.2555 25.6398
RightUpLeg  -35.4926 -14.081 -1.73642
RightLeg  22.9921 -3.03649 -1.63321
RightFoot  8.005 1.14846 -6.39516
RightToes  -4.65663e-010 0 -3.6325e-017
Spine  -6.13582 -1.53457 -6.33774
Spine1  7.74389 -3.36703 10.417
HEad  -12.6992 -2.55377 -1.51728
LeftShoulder1  8.28921 -11.4875 -48.259
LeftArm  -12.2431 20.7407 -24.2962
LeftForeArm  24.4587 -22.0055 -3.57656
LeftHand  -0.244104 0.0205437 5.32207
RightShoulder  6.00023 9.35533 40.494
RightArm  -6.20394 -14.5026 30.3942
RightForeArm  12.5307 10.3727 6.32081
RightHand  -0.760541 0.893575 -14.1364
LeftUpLeg  6.31271 13.962 7.08695
LeftLeg  34.5772 5.89724 4.70411
LeftFoot  3.41611 1.75862 -13.882
LeftToes  -7.27628e-011 -1.6005e-012 -1.37987e-011
844
root  14.9525 38.3405 -3.36702 -8.45975 -78.9697 12.8467
RightUpLeg  -33.973 -15.0554 -0.22606
RightLeg  23.5501 -4.0321 -1.99104
RightFoot  6.32027 1.07405 -6.6193
RightToes  -4.65663e-010 0 -3.6325e-017
Spine  -4.10351 -2.03716 -4.3126
Spine1  6.75409 -4.16568 11.6299
HEad  -14.0047 -2.86103 -1.13865
LeftShoulder1  8.3054 -11.5916 -48.0183
LeftArm  -11.0935 20.5444 -25.1192
LeftForeArm  25.0339 -19.9041 -3.53901
LeftHand  -0.244104 0.0205437 5.32207
RightShoulder  5.83718 9.10217 40.1582
RightArm  -2.70007 -13.9898 30.2893
RightForeArm  4.5154 16.3637 5.81083
RightHand  -0.828443 1.12988 -14.8378
LeftUpLeg  -0.669621 10.237 7.777
LeftLeg  44.4595 6.72534 7.37107
LeftFoot  9.81428 1.36824 -7.51592
LeftToes  -7.27628e-011 -1.6005e-012 -1.37987e-011
845
root  14.1355 38.5679 -3.3771 -2.53458 -77.9274 6.32916
RightUpLeg  -31.5793 -15.6072 0.230999
RightLeg  23.3576 -4.86971 -1.80993
RightFoot  5.09936 0.994507 -6.6305
RightToes  -4.65663e-010 0 -3.6325e-017
Spine  -1.80875 -1.80991 -1.7692
Spine1  5.93752 -3.84581 11.0787
HEad  -15.4811 -4.25557 -0.476116
LeftShoulder1  8.35464 -11.7343 -47.8495
LeftArm  -9.99301 19.2462 -25.4198
LeftForeArm  26.5842 -18.6594 -3.63538
LeftHand  -0.244104 0.0205437 5.32207
RightShoulder  5.77061 9.00547 39.9929
RightArm  -0.107393 -13.8915 29.8945
RightForeArm  -2.93369 22.9901 5.15178
RightHand  -0.920528 1.48325 -15.6445
LeftUpLeg  -6.54912 7.95904 7.83968
LeftLeg  52.3328 5.7153 8.31716
LeftFoot  11.1949 0.871983 -4.68403
LeftToes  -7.27628e-011 -1.6005e-012 -1.37987e-011
846
root  13.3519 38.85 -3.37474 -2.65085 -77.837 6.01468
RightUpLeg  -29.0526 -15.3847 -0.422027
RightLeg  22.6049 -5.56119 -1.24707
RightFoot  3.8655 0.921148 -6.68964
RightToes  -4.65663e-010 0 -3.6325e-017
Spine  -0.119808 -1.1731 -0.233326
Spine1  5.58096 -2.96538 9.88123
HEad  -16.8446 -5.61072 0.0484144
LeftShoulder1  8.38881 -11.8261 -47.757
LeftArm  -9.54915 18.281 -25.4293
LeftForeArm  27.174 -19.2369 -3.59709
LeftHand  -0.244104 0.0205437 5.32207
RightShoulder  5.78488 9.12091 39.7003
RightArm  -1.22063 -13.0732 29.3724
RightForeArm  -3.52843 27.8577 6.17249
RightHand  -0.960107 1.48637 -16.3005
LeftUpLeg  -11.6488 7.24573 6.59758
LeftLeg  57.6497 4.27348 7.75768
LeftFoot  8.87846 0.849584 -5.0915
LeftToes  -7.27628e-011 -1.6005e-012 -1.37987e-011
847
root  12.6235 39.1246 -3.37575 -4.37653 -78.1237 7.6799
RightUpLeg  -26.9065 -14.3373 -1.59311
RightLeg  21.5806 -6.75953 -0.522392
RightFoot  2.98946 0.862657 -6.68636
RightToes  -4.65663e-010 0 -3.6325e-017
Spine  1.1436 -0.556762 0.470917
Spine1  5.19646 -2.18644 8.99456
HEad  -17.6582 -6.38332 0.124841
LeftShoulder1  8.39796 -11.8549 -47.7191
LeftArm  -9.5903 18.1846 -25.1836
LeftForeArm  26.2932 -21.2405 -3.52043
LeftHand  -0.244104 0.0205437 5.32207
RightShoulder  5.77184 9.22293 39.2527
RightArm  -1.19344 -11.5674 29.0927
RightForeArm  -1.95911 31.3345 6.98443
RightHand  -0.906497 0.987598 -16.5603
LeftUpLeg  -16.6017 7.1788 4.77982
LeftLeg  60.5288 3.13812 6.58022
LeftFoot  5.6528 0.878627 -6.09441
LeftToes  -7.27628e-011 -1.6005e-012 -1.37987e-011
